<svg viewBox="0 -25 68 100" width="100%" height="100%" xmlns="http://www.w3.org/2000/svg">
  <defs>
    <radialGradient id="ghost-body-boo" cx="38%" cy="26%" r="85%">
      <stop offset="0%" stop-color="#FFFFFF" />
      <stop offset="55%" stop-color="#F9FAFF" />
      <stop offset="100%" stop-color="#D5DDF2" />
    </radialGradient>
    <radialGradient id="ghost-cheek-boo" cx="50%" cy="50%" r="55%">
      <stop offset="0%" stop-color="rgba(251,113,133,0.85)" />
      <stop offset="55%" stop-color="rgba(253,164,175,0.55)" />
      <stop offset="100%" stop-color="rgba(254,205,211,0)" />
    </radialGradient>
  </defs>
  <ellipse cx="34" cy="70" rx="20" ry="2.5" fill="rgba(30,41,59,0.18)" />
  <path d="M34 4 C 14 4, 6 18, 6 34 L 6 54 C 6 60, 9 64, 14 64 C 18 64, 20 60, 22 57 C 24 54, 27 54, 28 57 C 29 61, 31 64, 34 64 C 37 64, 39 61, 40 57 C 41 54, 44 54, 46 57 C 48 60, 50 64, 54 64 C 59 64, 62 60, 62 54 L 62 34 C 62 18, 54 4, 34 4 Z" fill="url(#ghost-body-boo)" stroke="rgba(30,41,59,0.12)" stroke-width="0.9" />
  <ellipse cx="15" cy="40" rx="7" ry="4.5" fill="url(#ghost-cheek-boo)" />
  <ellipse cx="53" cy="40" rx="7" ry="4.5" fill="url(#ghost-cheek-boo)" />
  <g>
    <path d="M 20 33 Q 24 28, 28 33" stroke="#1E293B" stroke-width="1.9" fill="none" stroke-linecap="round" />
    <path d="M 40 33 Q 44 28, 48 33" stroke="#1E293B" stroke-width="1.9" fill="none" stroke-linecap="round" />
    <path d="M 31 44 Q 34 47.5, 37 44" stroke="#1E293B" stroke-width="1.8" fill="none" stroke-linecap="round" />
    <path d="M 30 53 L 38 57 L 38 53 L 30 57 Z" fill="#0B0F1A" />
    <circle cx="34" cy="55" r="1.8" fill="#0B0F1A" />
  </g>
  <g>
    <ellipse cx="34" cy="2" rx="20" ry="2.6" fill="#0B0F1A" />
    <ellipse cx="34" cy="1.5" rx="20" ry="1.6" fill="#1E2538" />
    <path d="M 19 0 L 19 -22 C 19 -24, 49 -24, 49 -22 L 49 0 Z" fill="#0B0F1A" />
    <path d="M 19 -16 L 49 -16 L 49 -11 L 19 -11 Z" fill="#991B1B" />
    <ellipse cx="34" cy="-22" rx="15" ry="1.8" fill="#1E2538" />
  </g>
</svg>
